<?xml version="1.0" standalone="no"?><!DOCTYPE svg PUBLIC "-//W3C//DTD SVG 1.1//EN" "http://www.w3.org/Graphics/SVG/1.1/DTD/svg11.dtd"><svg t="1521694087181" class="icon" style="" viewBox="0 0 1024 1024" version="1.1" xmlns="http://www.w3.org/2000/svg" p-id="15908" xmlns:xlink="http://www.w3.org/1999/xlink" width="200" height="200"><defs><style type="text/css"></style></defs><path d="M511.737522 980.347804c-62.223157 0-122.595152-12.190647-179.437765-36.233226-54.895261-23.217794-104.190991-56.45478-146.522098-98.783841-42.329061-42.330084-75.566046-91.626837-98.783841-146.523121C62.951239 641.965004 50.760592 581.593008 50.760592 519.368828c0-62.22418 12.190647-122.596176 36.233226-179.438789 23.217794-54.895261 56.45478-104.192014 98.783841-146.522098 42.330084-42.330084 91.626837-75.565023 146.522098-98.783841 56.842613-24.042579 117.214608-36.233226 179.437765-36.233226 62.225203 0 122.597199 12.190647 179.440835 36.233226 54.895261 23.218818 104.190991 56.453756 146.522098 98.783841 42.329061 42.330084 75.565023 91.626837 98.783841 146.522098 24.041556 56.842613 36.232203 117.214608 36.232203 179.438789 0 62.22418-12.190647 122.596176-36.232203 179.438789-23.218818 54.896284-56.45478 104.192014-98.783841 146.523121-42.330084 42.329061-91.626837 75.566046-146.522098 98.783841C634.333698 968.156134 573.961702 980.347804 511.737522 980.347804zM511.737522 93.183286c-234.998175 0-426.184519 191.186344-426.184519 426.185542S276.738323 945.555393 511.737522 945.555393c234.999199 0 426.185542-191.186344 426.185542-426.185542S746.736721 93.183286 511.737522 93.183286z" p-id="15909" fill="#6699cc"></path><path d="M167.436942 623.12082l5.770424-81.394798 2.662643-59.331293 0.737804-26.38595c0.198521-7.652284 0.297782-15.006785 0.297782-22.063505l-0.148379-14.310937c15.620769 0.200568 27.308973 0.298805 35.07075 0.298805 6.069229 0 16.613376-0.098237 31.637558-0.298805-2.356674 28.52466-3.87833 53.719482-4.561899 75.580373l81.143065 0c0.491187-8.162914 0.959861-19.193131 1.404999-33.085536 0.443092-13.892405 0.666172-23.376407 0.666172-28.455075 0-2.688225-0.100284-7.369851-0.298805-14.040784l35.284621 0.298805c3.670599 0 14.09195-0.098237 31.264051-0.298805-3.549849 51.083445-5.819542 89.071641-6.80294 113.968681-0.988514 24.894993-1.479701 54.734602-1.479701 89.518826l-32.530904-0.297782c-4.875031 0-16.515139 0.099261-34.916231 0.297782 2.484587-23.651676 4.176113-51.181683 5.070482-82.587973L236.496807 540.532847l-2.501984 82.587973-34.622542-0.297782C194.992531 622.823038 184.3481 622.921275 167.436942 623.12082z" p-id="15910" fill="#6699cc"></path><path d="M539.8283 415.757029c15.899108 0 31.205723 2.13871 45.915749 6.411013 14.706957 4.27435 27.577079 11.105942 38.60832 20.496823 11.033287 9.391904 19.281135 20.199041 24.74866 32.425504 5.464455 12.223393 8.198729 26.287713 8.198729 42.187845 0 16.696264-3.006474 32.029484-9.018398 45.989427-6.014994 13.963013-14.685467 25.815969-26.015513 35.553751-11.329023 9.740852-24.845874 16.870226-40.548508 21.392216-15.703657 4.520967-32.04995 6.783497-49.045019 6.783497-16.796548 0-32.897248-2.213411-48.301076-6.634094-15.405875-4.421706-28.797883-11.576663-40.176025-21.466917-11.380188-9.888208-19.454074-20.893866-24.223704-33.020044-4.771677-12.125155-7.157004-25.590841-7.157004-40.399105 0-21.765723 5.042853-40.869826 15.131629-57.320497 10.085706-16.446577 25.045419-29.29214 44.871977-38.535665C492.645698 420.379303 514.982426 415.757029 539.8283 415.757029zM537.145192 460.629006c-11.43033 0-21.765723 2.809999-31.008224 8.422833-9.243525 5.614881-16.350386 13.416568-21.317515 23.405059-4.970198 9.987468-7.453762 20.699438-7.453762 32.127721 0 10.534937 2.25946 20.174482 6.782473 28.919656 4.520967 8.746198 11.403724 15.57779 20.646226 20.497846 9.243525 4.920056 19.031449 7.378038 29.366841 7.378038 11.033287 0 21.144576-2.756787 30.336936-8.273431 9.19236-5.517667 16.197914-13.268188 21.020756-23.255657 4.818749-9.987468 7.228635-20.446681 7.228635-31.379685 0-10.633175-2.236947-20.446681-6.708795-29.442566-4.470825-8.992815-11.030218-15.97381-19.677155-20.945031C557.716716 463.114616 547.975864 460.629006 537.145192 460.629006z" p-id="15911" fill="#6699cc"></path><path d="M726.470141 623.12082c4.936429-48.301076 7.899924-101.467973 8.886391-159.5099l-63.448054 1.64036 0.74599-16.546861c0.397043-8.844435 0.693802-18.534122 0.89437-29.070082 28.214599 0.200568 61.10059 0.299829 98.656951 0.299829l36.810371-0.149403 35.769668 0 19.37221-0.151449-0.893346 14.602579c-0.397043 7.831362-0.669242 14.304797-0.817622 19.424398-0.149403 5.119601-0.223081 8.981559-0.223081 11.589966-21.252023-1.091868-38.778188-1.64036-52.579519-1.64036l-10.425444 0c-1.50119 17.558911-2.650363 33.777291-3.449565 48.657186-1.102101 21.326724-1.951445 42.034349-2.552126 62.121849-0.602727 20.088524-0.900509 36.33351-0.900509 48.731888-16.286941-0.198521-26.815739-0.297782-31.583323-0.297782C756.462223 622.823038 745.041102 622.921275 726.470141 623.12082z" p-id="15912" fill="#6699cc"></path></svg>